<svg width="32" height="32" viewBox="0 0 32 32" fill="none" xmlns="http://www.w3.org/2000/svg">
<rect width="32" height="32" rx="6" fill="#2B2B2B"/>
<path d="M6.193 24L10.384 7.753H14.96L19.118 24H16.137L12.661 9.546H12.683L9.174 24H6.193ZM8.899 20.051V17.73H16.445V20.051H8.899ZM21.9316 27.421L21.5246 26.695C21.8619 26.541 22.1883 26.3137 22.5036 26.013C22.8189 25.7197 23.0829 25.4007 23.2956 25.056C23.5083 24.7187 23.6146 24.4143 23.6146 24.143C23.6146 24.0477 23.5999 23.9523 23.5706 23.857C23.5413 23.7617 23.5046 23.6773 23.4606 23.604H24.1536C24.0656 23.824 23.9079 24.0073 23.6806 24.154C23.4606 24.3007 23.1856 24.374 22.8556 24.374C22.4376 24.374 22.0673 24.2383 21.7446 23.967C21.4219 23.6883 21.2606 23.2923 21.2606 22.779C21.2606 22.295 21.4293 21.899 21.7666 21.591C22.1039 21.2757 22.5366 21.118 23.0646 21.118C23.6439 21.118 24.1023 21.3123 24.4396 21.701C24.7843 22.0823 24.9566 22.5847 24.9566 23.208C24.9566 23.824 24.8063 24.4143 24.5056 24.979C24.2049 25.5437 23.8236 26.035 23.3616 26.453C22.8996 26.8783 22.4229 27.201 21.9316 27.421ZM22.9326 15.816C22.4779 15.816 22.0929 15.6583 21.7776 15.343C21.4623 15.0277 21.3046 14.6427 21.3046 14.188C21.3046 13.7407 21.4623 13.3593 21.7776 13.044C22.0929 12.7213 22.4779 12.56 22.9326 12.56C23.3799 12.56 23.7613 12.7213 24.0766 13.044C24.3993 13.3593 24.5606 13.7407 24.5606 14.188C24.5606 14.6427 24.3993 15.0277 24.0766 15.343C23.7613 15.6583 23.3799 15.816 22.9326 15.816Z" fill="white"/>
</svg>
